<?xml version="1.0" encoding="UTF-8" standalone="no"?>
<!DOCTYPE svg PUBLIC "-//W3C//DTD SVG 1.1//EN" "http://www.w3.org/Graphics/SVG/1.1/DTD/svg11.dtd">
<svg width="100%" height="100%" viewBox="0 0 2481 2481" version="1.1" xmlns="http://www.w3.org/2000/svg" xmlns:xlink="http://www.w3.org/1999/xlink" xml:space="preserve" xmlns:serif="http://www.serif.com/" style="fill-rule:evenodd;clip-rule:evenodd;stroke-linejoin:round;stroke-miterlimit:2;">
    <g transform="matrix(1,0,0,1,-6.84027,20.3647)">
        <g>
            <g transform="matrix(0.809635,0,0,0.809635,-257.607,367.089)">
                <g transform="matrix(2212.93,0,0,2212.93,369.622,1894.36)">
                    <path d="M0.085,0.069L0.066,0.066L0.055,0.05L0.059,0.031L0.074,0.02C0.156,0.001 0.235,-0.029 0.307,-0.073L0.485,-0.225L0.401,-0.32L0.341,-0.394L0.315,-0.427L0.31,-0.445L0.319,-0.462L0.338,-0.466L0.355,-0.457L0.377,-0.429L0.435,-0.358L0.516,-0.266C0.565,-0.336 0.597,-0.413 0.609,-0.498L0.62,-0.515L0.638,-0.519L0.655,-0.51L0.659,-0.491L0.622,-0.354L0.551,-0.229L0.638,-0.145L0.723,-0.077L0.791,-0.041L0.864,-0.011L0.924,0.008L0.947,0.015L0.962,0.026L0.965,0.045L0.954,0.061L0.934,0.063L0.907,0.056L0.845,0.035L0.768,0.004L0.695,-0.035L0.608,-0.104L0.52,-0.188C0.466,-0.124 0.402,-0.071 0.331,-0.028C0.254,0.018 0.172,0.05 0.085,0.069ZM0.148,-0.496L0.13,-0.502L0.12,-0.518L0.126,-0.537L0.142,-0.546L0.86,-0.633L0.879,-0.629L0.888,-0.611L0.883,-0.593L0.866,-0.583L0.148,-0.496ZM0.552,-0.661L0.534,-0.655L0.517,-0.665L0.418,-0.789L0.413,-0.807L0.422,-0.824L0.44,-0.83L0.457,-0.82L0.556,-0.696L0.562,-0.678L0.552,-0.661Z" style="fill-rule:nonzero;" fill="currentColor"/>
                </g>
            </g>
            <g transform="matrix(0.809635,0,0,0.809635,1146.23,262.787)">
                <g transform="matrix(1183.66,0,0,1183.66,369.622,1894.36)">
                    <path d="M0.103,0.053L0.083,0.053L0.07,0.039L0.07,0.02L0.084,0.007L0.272,-0.1L0.397,-0.246L0.468,-0.444L0.151,-0.414L0.133,-0.42L0.124,-0.437L0.129,-0.456L0.146,-0.465L0.477,-0.496L0.488,-0.635L0.487,-0.794L0.494,-0.813L0.512,-0.82L0.53,-0.814L0.538,-0.796L0.54,-0.64L0.528,-0.501L0.865,-0.532L0.884,-0.528L0.893,-0.51L0.888,-0.492L0.87,-0.482L0.52,-0.449L0.445,-0.227C0.409,-0.164 0.364,-0.11 0.308,-0.064L0.103,0.053ZM0.945,0.042L0.925,0.035L0.879,0.017L0.819,-0.011L0.758,-0.044L0.676,-0.105L0.596,-0.175L0.535,-0.233L0.509,-0.258L0.502,-0.277L0.509,-0.294L0.527,-0.301L0.545,-0.293L0.56,-0.278L0.601,-0.239L0.657,-0.187L0.721,-0.133L0.785,-0.087L0.842,-0.055L0.899,-0.029L0.944,-0.012L0.961,-0.005L0.976,0.007L0.977,0.027L0.964,0.041L0.945,0.042Z" style="fill-rule:nonzero;" fill="currentColor"/>
                </g>
            </g>
        </g>
    </g>
</svg>
