<?xml version="1.0" encoding="UTF-8" standalone="no"?>
<!DOCTYPE svg PUBLIC "-//W3C//DTD SVG 1.1//EN" "http://www.w3.org/Graphics/SVG/1.1/DTD/svg11.dtd">
<svg width="100%" height="100%" viewBox="0 0 2481 2481" version="1.1" xmlns="http://www.w3.org/2000/svg" xmlns:xlink="http://www.w3.org/1999/xlink" xml:space="preserve" xmlns:serif="http://www.serif.com/" style="fill-rule:evenodd;clip-rule:evenodd;stroke-linejoin:round;stroke-miterlimit:2;">
    <g transform="matrix(1,0,0,1,-6.84027,20.3647)">
        <g>
            <g transform="matrix(0.809635,0,0,0.809635,-257.607,367.089)">
                <g transform="matrix(2212.93,0,0,2212.93,369.622,1894.36)">
                    <path d="M0.085,0.069L0.066,0.066L0.055,0.05L0.059,0.031L0.074,0.02C0.156,0.001 0.235,-0.029 0.307,-0.073L0.485,-0.225L0.401,-0.32L0.341,-0.394L0.315,-0.427L0.31,-0.445L0.319,-0.462L0.338,-0.466L0.355,-0.457L0.377,-0.429L0.435,-0.358L0.516,-0.266C0.565,-0.336 0.597,-0.413 0.609,-0.498L0.62,-0.515L0.638,-0.519L0.655,-0.51L0.659,-0.491L0.622,-0.354L0.551,-0.229L0.638,-0.145L0.723,-0.077L0.791,-0.041L0.864,-0.011L0.924,0.008L0.947,0.015L0.962,0.026L0.965,0.045L0.954,0.061L0.934,0.063L0.907,0.056L0.845,0.035L0.768,0.004L0.695,-0.035L0.608,-0.104L0.52,-0.188C0.466,-0.124 0.402,-0.071 0.331,-0.028C0.254,0.018 0.172,0.05 0.085,0.069ZM0.148,-0.496L0.13,-0.502L0.12,-0.518L0.126,-0.537L0.142,-0.546L0.86,-0.633L0.879,-0.629L0.888,-0.611L0.883,-0.593L0.866,-0.583L0.148,-0.496ZM0.552,-0.661L0.534,-0.655L0.517,-0.665L0.418,-0.789L0.413,-0.807L0.422,-0.824L0.44,-0.83L0.457,-0.82L0.556,-0.696L0.562,-0.678L0.552,-0.661Z" style="fill-rule:nonzero;" fill="currentColor"/>
                </g>
            </g>
            <g transform="matrix(0.809635,0,0,0.809635,1146.23,262.787)">
                <g transform="matrix(1183.66,0,0,1183.66,369.622,1894.36)">
                    <path d="M0.498,0.049L0.267,-0.044L0.253,-0.058L0.253,-0.077L0.266,-0.091L0.286,-0.091L0.482,-0.012L0.482,-0.773L0.49,-0.791L0.507,-0.798L0.525,-0.791L0.532,-0.773L0.532,0.025L0.521,0.046L0.498,0.049ZM0.082,-0.243L0.064,-0.243L0.049,-0.256L0.048,-0.276L0.062,-0.289L0.132,-0.328L0.208,-0.381L0.278,-0.443L0.329,-0.506L0.345,-0.517L0.364,-0.514L0.375,-0.498L0.371,-0.479L0.314,-0.409L0.238,-0.342L0.158,-0.284L0.082,-0.243ZM0.908,-0.282L0.649,-0.483L0.64,-0.5L0.644,-0.518L0.662,-0.528L0.68,-0.523L0.939,-0.322L0.949,-0.306L0.944,-0.287L0.926,-0.278L0.908,-0.282Z" style="fill-rule:nonzero;" fill="currentColor"/>
                </g>
            </g>
        </g>
    </g>
</svg>
